<svg width="18" height="14" viewBox="0 0 18 14" fill="none" xmlns="http://www.w3.org/2000/svg">
<path d="M2.33341 13.6666C1.87508 13.6666 1.48272 13.5034 1.15633 13.177C0.829942 12.8506 0.666748 12.4583 0.666748 11.9999V1.99992C0.666748 1.54159 0.829942 1.14922 1.15633 0.822835C1.48272 0.496446 1.87508 0.333252 2.33341 0.333252H15.6667C16.1251 0.333252 16.5174 0.496446 16.8438 0.822835C17.1702 1.14922 17.3334 1.54159 17.3334 1.99992V11.9999C17.3334 12.4583 17.1702 12.8506 16.8438 13.177C16.5174 13.5034 16.1251 13.6666 15.6667 13.6666H2.33341ZM2.33341 11.9999H15.6667V3.66658H2.33341V11.9999ZM5.25008 11.1666L4.08341 9.99992L6.22925 7.83325L4.06258 5.66658L5.25008 4.49992L8.58341 7.83325L5.25008 11.1666ZM9.00008 11.1666V9.49992H14.0001V11.1666H9.00008Z" fill="white"/>
</svg>
