<svg width="37" height="30" viewBox="0 0 37 30" fill="none" xmlns="http://www.w3.org/2000/svg">
<path fill-rule="evenodd" clip-rule="evenodd" d="M14.8665 22.8425C12.8062 26.0019 9.35377 30 4.75984 30C2.58817 30 0.5 29.1053 0.5 25.219C0.5 15.3215 14.0034 0 26.5323 0C33.66 0 36.5 4.94874 36.5 10.5685C36.5 17.7819 31.8224 26.0298 27.1727 26.0298C25.6971 26.0298 24.9732 25.219 24.9732 23.9329C24.9732 23.5974 25.0289 23.2339 25.1403 22.8425C23.5533 25.5545 20.4906 28.0708 17.6229 28.0708C15.5347 28.0708 14.4767 26.7568 14.4767 24.9115C14.4767 24.2404 14.6159 23.5415 14.8665 22.8425ZM25.6591 10.3735C25.6591 12.0111 24.6936 12.8299 23.6136 12.8299C22.5173 12.8299 21.5682 12.0111 21.5682 10.3735C21.5682 8.73598 22.5173 7.91721 23.6136 7.91721C24.6936 7.91721 25.6591 8.73598 25.6591 10.3735ZM31.7948 10.3736C31.7948 12.0112 30.8294 12.83 29.7494 12.83C28.653 12.83 27.7039 12.0112 27.7039 10.3736C27.7039 8.73612 28.653 7.91734 29.7494 7.91734C30.8294 7.91734 31.7948 8.73612 31.7948 10.3736Z" fill="#FFFDF8"/>
</svg>
