<svg width="20" height="20" viewBox="0 0 20 20" fill="none" xmlns="http://www.w3.org/2000/svg">
<path d="M10 18C8.60494 18 7.32407 17.6759 6.15741 17.0278C4.99074 16.3796 4.04938 15.5123 3.33333 14.4259V16.6667H2V12.2222H6.44444V13.5556H4.35185C4.94444 14.4938 5.73457 15.2469 6.72222 15.8148C7.70988 16.3827 8.80247 16.6667 10 16.6667C10.9259 16.6667 11.7932 16.4907 12.6019 16.1389C13.4105 15.787 14.1142 15.3117 14.713 14.713C15.3117 14.1142 15.787 13.4105 16.1389 12.6019C16.4907 11.7932 16.6667 10.9259 16.6667 10H18C18 11.1111 17.7901 12.1512 17.3704 13.1204C16.9506 14.0895 16.3796 14.9352 15.6574 15.6574C14.9352 16.3796 14.0895 16.9506 13.1204 17.3704C12.1512 17.7901 11.1111 18 10 18ZM9.38889 14.8889V14C9.12963 13.9383 8.76852 13.7716 8.30556 13.5C7.84259 13.2284 7.5 12.7037 7.27778 11.9259L8.44444 11.4444C8.46914 11.5185 8.59259 11.7809 8.81482 12.2315C9.03704 12.6821 9.46914 12.9074 10.1111 12.9074C10.4321 12.9074 10.7438 12.8179 11.0463 12.6389C11.3488 12.4599 11.5 12.1728 11.5 11.7778C11.5 11.4444 11.3735 11.1759 11.1204 10.9722C10.8673 10.7685 10.463 10.5679 9.90741 10.3704C9.52469 10.2346 9.04012 10.0154 8.4537 9.71296C7.86728 9.41049 7.57407 8.85802 7.57407 8.05556C7.57407 8.01852 7.65432 7.71605 7.81482 7.14815C7.97531 6.58025 8.50617 6.19753 9.40741 6V5.11111H10.6296V5.98148C11.284 6.09259 11.7438 6.33951 12.0093 6.72222C12.2747 7.10494 12.4321 7.37654 12.4815 7.53704L11.3889 8C11.3519 7.87654 11.2346 7.69136 11.037 7.44444C10.8395 7.19753 10.5123 7.07407 10.0556 7.07407C9.80864 7.07407 9.53704 7.14506 9.24074 7.28704C8.94444 7.42901 8.7963 7.67901 8.7963 8.03704C8.7963 8.37037 8.94753 8.62346 9.25 8.7963C9.55247 8.96914 10.0185 9.16049 10.6481 9.37037C11.4753 9.65432 12.0278 10.0031 12.3056 10.4167C12.5833 10.8302 12.7222 11.284 12.7222 11.7778C12.7222 12.2346 12.6296 12.6049 12.4444 12.8889C12.2593 13.1728 12.0463 13.3981 11.8056 13.5648C11.5648 13.7315 11.3302 13.8457 11.1019 13.9074C10.8735 13.9691 10.7099 14.0062 10.6111 14.0185V14.8889H9.38889ZM2 10C2 8.88889 2.20988 7.84877 2.62963 6.87963C3.04938 5.91049 3.62037 5.06481 4.34259 4.34259C5.06481 3.62037 5.91049 3.04938 6.87963 2.62963C7.84877 2.20988 8.88889 2 10 2C11.3951 2 12.6759 2.32407 13.8426 2.97222C15.0093 3.62037 15.9506 4.48765 16.6667 5.57407V3.33333H18V7.77778H13.5556V6.44444H15.6481C15.0556 5.50617 14.2654 4.75309 13.2778 4.18519C12.2901 3.61728 11.1975 3.33333 10 3.33333C9.07407 3.33333 8.20679 3.50926 7.39815 3.86111C6.58951 4.21296 5.8858 4.68827 5.28704 5.28704C4.68827 5.8858 4.21296 6.58951 3.86111 7.39815C3.50926 8.20679 3.33333 9.07407 3.33333 10H2Z" fill="white"/>
</svg>
