<svg width="16" height="16" viewBox="0 0 16 16" fill="none" xmlns="http://www.w3.org/2000/svg">
<path d="M8 16C6.88889 16 5.85069 15.7917 4.88542 15.375C3.92014 14.9583 3.07639 14.3819 2.35417 13.6458L3.41667 12.5833C4 13.1806 4.68403 13.6493 5.46875 13.9896C6.25347 14.3299 7.09722 14.5 8 14.5C9.80097 14.5 11.3346 13.8665 12.6008 12.5994C13.8669 11.3323 14.5 9.79757 14.5 7.99521C14.5 6.19285 13.8665 4.65972 12.5994 3.39583C11.3323 2.13194 9.79757 1.5 7.99521 1.5C6.19285 1.5 4.65972 2.13305 3.39583 3.39917C2.13194 4.66542 1.5 6.19903 1.5 8H0C0 6.88889 0.208333 5.85069 0.625 4.88542C1.04167 3.92014 1.61458 3.07292 2.34375 2.34375C3.07292 1.61458 3.92333 1.04167 4.895 0.625C5.86667 0.208333 6.90486 0 8.00958 0C9.11431 0 10.1495 0.21 11.1152 0.63C12.0808 1.05 12.9265 1.62333 13.6525 2.35C14.3783 3.07667 14.951 3.92333 15.3706 4.89C15.7902 5.85667 16 6.89333 16 8C16 9.09333 15.79 10.1267 15.37 11.1C14.95 12.0733 14.3767 12.9233 13.65 13.65C12.9233 14.3767 12.0767 14.95 11.11 15.37C10.1433 15.79 9.10667 16 8 16ZM1.27083 12.2917L4.5 9.0625L6.77083 11.3333L10.5 7.60417V10H12V5H7V6.5H9.5L6.77083 9.20833L4.5 6.9375L0.208333 11.2292L0.739583 11.7604L1.27083 12.2917Z" fill="#E3E3E3"/>
</svg>
