<svg width="16" height="14" viewBox="0 0 16 14" fill="none" xmlns="http://www.w3.org/2000/svg">
<path d="M2.5 14V12.5H13.5V14H2.5ZM2.5 11.5L1.45833 5.47917C1.43056 5.49306 1.39931 5.5 1.36458 5.5H1.25C0.902778 5.5 0.607639 5.37847 0.364583 5.13542C0.121528 4.89236 0 4.59722 0 4.25C0 3.90278 0.121528 3.60764 0.364583 3.36458C0.607639 3.12153 0.902778 3 1.25 3C1.59722 3 1.89236 3.12153 2.13542 3.36458C2.37847 3.60764 2.5 3.90278 2.5 4.25C2.5 4.34722 2.48958 4.4375 2.46875 4.52083C2.44792 4.60417 2.41667 4.6875 2.375 4.77083L5 6L7.33333 2.3125C7.15278 2.20139 7.01042 2.05118 6.90625 1.86187C6.80208 1.67243 6.75 1.46847 6.75 1.25C6.75 0.902778 6.87153 0.607639 7.11458 0.364583C7.35764 0.121528 7.65278 0 8 0C8.34722 0 8.64236 0.121528 8.88542 0.364583C9.12847 0.607639 9.25 0.902778 9.25 1.25C9.25 1.47222 9.19792 1.67708 9.09375 1.86458C8.98958 2.05208 8.84722 2.20139 8.66667 2.3125L11 6L13.625 4.77083C13.5833 4.6875 13.5521 4.60417 13.5312 4.52083C13.5104 4.4375 13.5 4.34722 13.5 4.25C13.5 3.90278 13.6215 3.60764 13.8646 3.36458C14.1076 3.12153 14.4028 3 14.75 3C15.0972 3 15.3924 3.12153 15.6354 3.36458C15.8785 3.60764 16 3.90278 16 4.25C16 4.59722 15.8785 4.89236 15.6354 5.13542C15.3924 5.37847 15.0972 5.5 14.75 5.5H14.6354C14.6007 5.5 14.5694 5.49306 14.5417 5.47917L13.5 11.5H2.5ZM3.75 10H12.25L12.7917 6.8125L10.4375 7.91667L8 4.0625L5.5625 7.91667L3.20833 6.8125L3.75 10Z" fill="white"/>
</svg>
