<svg width="16" height="12" viewBox="0 0 16 12" fill="none" xmlns="http://www.w3.org/2000/svg">
<path d="M2.35417 11.6458C1.61806 10.9236 1.04167 10.08 0.625 9.11498C0.208333 8.14998 0 7.11512 0 6.0104C0 4.89234 0.208333 3.85067 0.625 2.8854C1.04167 1.92012 1.61111 1.06942 2.33333 0.333313L3.39583 1.39581C2.8125 1.99304 2.35069 2.6847 2.01042 3.47081C1.67014 4.25692 1.5 5.09727 1.5 5.99185C1.5 6.90005 1.66993 7.74679 2.00979 8.53206C2.34965 9.31734 2.81861 10.0011 3.41667 10.5833L2.35417 11.6458ZM4.45833 9.54165C4.01389 9.08331 3.65972 8.55206 3.39583 7.9479C3.13194 7.34373 3 6.6963 3 6.0056C3 5.30102 3.13194 4.64824 3.39583 4.04727C3.65972 3.4463 4.01389 2.91665 4.45833 2.45831L5.52083 3.52081C5.20222 3.84317 4.95243 4.21672 4.77146 4.64144C4.59049 5.0663 4.5 5.52047 4.5 6.00394C4.5 6.48741 4.59049 6.94061 4.77146 7.36352C4.95243 7.78644 5.20222 8.15831 5.52083 8.47915L4.45833 9.54165ZM7.99479 7.74998C7.51215 7.74998 7.10069 7.5781 6.76042 7.23435C6.42014 6.8906 6.25 6.47741 6.25 5.99477C6.25 5.51213 6.42188 5.10067 6.76562 4.7604C7.10938 4.42012 7.52257 4.24998 8.00521 4.24998C8.48785 4.24998 8.89931 4.42185 9.23958 4.7656C9.57986 5.10935 9.75 5.52255 9.75 6.00519C9.75 6.48783 9.57812 6.89929 9.23438 7.23956C8.89062 7.57984 8.47743 7.74998 7.99479 7.74998ZM11.5208 9.52081L10.4792 8.47915C10.7978 8.15679 11.0476 7.78324 11.2285 7.35852C11.4095 6.93366 11.5 6.47949 11.5 5.99602C11.5 5.51255 11.4095 5.05935 11.2285 4.63644C11.0476 4.21352 10.7978 3.84165 10.4792 3.52081L11.5417 2.45831C11.9861 2.91665 12.3403 3.44679 12.6042 4.04873C12.8681 4.65067 13 5.30456 13 6.0104C13 6.70234 12.8681 7.34929 12.6042 7.95123C12.3403 8.55317 11.9792 9.07637 11.5208 9.52081ZM13.6458 11.6458L12.5833 10.5833C13.1806 9.99998 13.6493 9.31526 13.9896 8.52915C14.3299 7.74304 14.5 6.90269 14.5 6.00811C14.5 5.09991 14.3299 4.25345 13.9896 3.46873C13.6493 2.68401 13.1875 1.99304 12.6042 1.39581L13.6667 0.333313C14.3889 1.06942 14.9583 1.91998 15.375 2.88498C15.7917 3.84998 16 4.89151 16 6.00956C16 7.11429 15.7917 8.14929 15.375 9.11456C14.9583 10.0798 14.3819 10.9236 13.6458 11.6458Z" fill="white"/>
</svg>
